<svg width="15" height="15" viewBox="0 0 15 15" fill="none" xmlns="http://www.w3.org/2000/svg">
<circle cx="40" cy="40" r="40" fill="white" fill-opacity="0.1"/>
<ellipse cx="41.6359" cy="40.5774" rx="13.4728" ry="13.7615" fill="#050214"/>
<g clip-path="url(#clip0_24_480)">
<path d="M40 17C27.2974 17 17 27.2974 17 40C17 52.7025 27.2974 62.9999 40 62.9999C52.7025 62.9999 62.9999 52.7025 62.9999 40C62.9864 27.3031 52.6969 17.0136 40 17ZM49.6861 40.7328C49.5269 41.0522 49.2681 41.3111 48.9486 41.4703V41.4785L35.8058 48.05C34.9941 48.4555 34.0074 48.1264 33.6018 47.3147C33.4864 47.084 33.4271 46.8293 33.4285 46.5714V33.4286C33.4281 32.5212 34.1633 31.7854 35.0706 31.7849C35.3258 31.7848 35.5775 31.8441 35.8058 31.9582L48.9486 38.5297C49.7606 38.9343 50.0909 39.9207 49.6861 40.7328Z" fill="white"/>
</g>
<defs>
<clipPath id="clip0_24_480">
<rect width="46" height="46" fill="white" transform="translate(17 17)"/>
</clipPath>
</defs>
</svg>
