<?xml version="1.0" encoding="UTF-8"?>
<svg xmlns="http://www.w3.org/2000/svg" xmlns:xlink="http://www.w3.org/1999/xlink" width="20px" height="20px" viewBox="0 0 20 20" version="1.1">
<defs>
<clipPath id="clip1">
  <path d="M 4.25 4.25 L 15.75 4.25 L 15.75 15.75 L 4.25 15.75 Z M 4.25 4.25 "/>
</clipPath>
</defs>
<g id="surface1">
<path style=" stroke:none;fill-rule:nonzero;fill:rgb(100%,100%,100%);fill-opacity:0.101961;" d="M 20 10 C 20 4.476562 15.523438 0 10 0 C 4.476562 0 0 4.476562 0 10 C 0 15.523438 4.476562 20 10 20 C 15.523438 20 20 15.523438 20 10 Z M 20 10 "/>
<path style=" stroke:none;fill-rule:nonzero;fill:rgb(1.960784%,0.784314%,7.843138%);fill-opacity:1;" d="M 13.777344 10.144531 C 13.777344 8.246094 12.269531 6.703125 10.410156 6.703125 C 8.546875 6.703125 7.039062 8.246094 7.039062 10.144531 C 7.039062 12.042969 8.546875 13.585938 10.410156 13.585938 C 12.269531 13.585938 13.777344 12.042969 13.777344 10.144531 Z M 13.777344 10.144531 "/>
<g clip-path="url(#clip1)" clip-rule="nonzero">
<path style=" stroke:none;fill-rule:nonzero;fill:rgb(100%,100%,100%);fill-opacity:1;" d="M 10 4.25 C 6.824219 4.25 4.25 6.824219 4.25 10 C 4.25 13.175781 6.824219 15.75 10 15.75 C 13.175781 15.75 15.75 13.175781 15.75 10 C 15.746094 6.824219 13.175781 4.253906 10 4.25 Z M 12.421875 10.183594 C 12.382812 10.261719 12.316406 10.328125 12.238281 10.367188 L 12.238281 10.371094 L 8.953125 12.011719 C 8.75 12.113281 8.5 12.03125 8.402344 11.828125 C 8.371094 11.769531 8.355469 11.707031 8.355469 11.644531 L 8.355469 8.355469 C 8.355469 8.128906 8.539062 7.945312 8.769531 7.945312 C 8.832031 7.945312 8.894531 7.960938 8.953125 7.988281 L 12.238281 9.632812 C 12.441406 9.734375 12.523438 9.980469 12.421875 10.183594 Z M 12.421875 10.183594 "/>
</g>
</g>
</svg>
